<?xml version="1.0" encoding="utf-8"?>
<!-- Generator: Adobe Illustrator 25.0.0, SVG Export Plug-In . SVG Version: 6.00 Build 0)  -->
<svg version="1.1" id="Layer_1" xmlns="http://www.w3.org/2000/svg" xmlns:xlink="http://www.w3.org/1999/xlink" x="0px" y="0px"
	 viewBox="0 0 700 700" style="enable-background:new 0 0 700 700;" xml:space="preserve">
<style type="text/css">
	.st0{fill:#FFFFFF;}
</style>
<path class="st0" d="M659.5,180.8l-78-82.1c-5.9-6.7-14.3-10.8-23.2-11.2c-8.9-0.4-17.7,2.8-24.1,9c-6.5,6.2-10.2,14.7-10.2,23.6
	c-0.1,8.9,3.6,17.5,10,23.8l25.4,27.1h-84.6c-24,0-46.8,10.5-62.4,28.7L175.2,477.2c-3.1,3.6-7.6,5.7-12.3,5.7H31.5v65.7h131.3
	c24,0,46.8-10.5,62.4-28.7l237.2-277.5c3.1-3.6,7.6-5.7,12.3-5.7h84.6l-25.4,26.3c-7.5,8.6-10,20.5-6.6,31.4
	c3.4,10.9,12.2,19.2,23.3,22.1c11.1,2.8,22.8-0.3,31-8.3l78-82.1c5.8-6.1,9-14.2,9-22.6C668.5,195,665.3,186.9,659.5,180.8
	L659.5,180.8z"/>
<path class="st0" d="M31.5,236.6h131.3c4.7,0,9.2,2.1,12.3,5.7l78.1,96.9l45.6-53l-73.7-85.7C209.8,182,187,171.2,162.9,171H31.5
	L31.5,236.6z"/>
<path class="st0" d="M659.5,493.6l-78-82.1c-8.2-7.9-19.9-11.1-31-8.3c-11.1,2.8-19.9,11.2-23.3,22.1s-0.9,22.8,6.6,31.4l25.4,26.3
	h-80.4c-7.2,0.2-14.1-2.8-18.9-8.2l-76.8-90.5l-46.4,53l73.2,79.3c17.2,20.8,42.8,32.9,69.8,32.8h79.6l-25.4,26.3
	c-7.5,8.6-10,20.5-6.6,31.4s12.2,19.2,23.3,22.1c11.1,2.8,22.8-0.3,31-8.3l78-82.1c5.8-6.1,9-14.2,9-22.6
	C668.5,507.8,665.3,499.7,659.5,493.6L659.5,493.6z"/>
</svg>
