<?xml version="1.0" encoding="utf-8"?>
<!-- Generator: Adobe Illustrator 26.0.2, SVG Export Plug-In . SVG Version: 6.00 Build 0)  -->
<svg version="1.1" id="Layer_1" xmlns="http://www.w3.org/2000/svg" xmlns:xlink="http://www.w3.org/1999/xlink" x="0px" y="0px"
	 viewBox="0 0 512 512" style="enable-background:new 0 0 512 512;" xml:space="preserve">
<style type="text/css">
</style>
<g fill="#fff">
	<path class="st0" d="M199.4,234.5c-17.1,0-30.7,15.4-30.7,34.4s13.9,34.4,30.7,34.4c17.1,0,30.7-15.4,30.7-34.4
		C230.3,250.1,216.6,234.5,199.4,234.5z"/>
	<path class="st0" d="M312.8,234.5c-17.1,0-30.7,15.4-30.7,34.4s13.9,34.4,30.7,34.4c17.2,0,30.6-15.4,30.7-34.4
		C343.7,250.1,330,234.5,312.8,234.5z"/>
	<path class="st0" d="M256,0C114.6,0,0,114.6,0,256s114.6,256,256,256s256-114.6,256-256S397.4,0,256,0z M425,342.2
		c0,0.3-0.1,0.6-0.4,0.8c-29.2,21.5-57.4,34.5-85.3,43.1c-0.4,0.1-0.9,0-1.2-0.4c-6.4-8.9-12.3-18.4-17.4-28.3
		c-0.3-0.6,0-1.3,0.6-1.5c9.3-3.5,18.1-7.7,26.6-12.7c0.7-0.4,0.7-1.3,0.1-1.8c-1.8-1.4-3.6-2.8-5.3-4.2c-0.3-0.2-0.7-0.3-1.1-0.1
		c-55.1,25.5-115.6,25.5-171.4,0c-0.4-0.2-0.8-0.2-1.1,0.1c-1.7,1.4-3.5,2.8-5.3,4.1c-0.6,0.4-0.6,1.4,0.1,1.8
		c8.5,4.9,17.3,9.2,26.6,12.7c0.6,0.2,0.9,0.9,0.6,1.5c-5,9.9-10.8,19.3-17.4,28.3c-0.3,0.4-0.8,0.5-1.2,0.4
		c-27.8-8.7-56-21.7-85.2-43.1c-0.2-0.2-0.4-0.5-0.4-0.8C80.9,278.5,93,214,137.3,148c0.2-0.2,0.3-0.3,0.5-0.4
		c21.7-10,45-17.3,69.4-21.5c0.4-0.1,0.9,0.1,1.1,0.5c3,5.4,6.5,12.2,8.8,17.8c25.7-3.9,51.8-3.9,78,0c2.3-5.5,5.6-12.5,8.6-17.8
		c0.2-0.4,0.7-0.6,1.1-0.5c24.3,4.2,47.7,11.5,69.4,21.5c0.2,0,0.4,0.2,0.4,0.4C413.1,204.7,432.1,268.6,425,342.2z"/>
</g>
</svg>
