<?xml version="1.0" encoding="utf-8"?>
<!-- Generator: Adobe Illustrator 26.0.2, SVG Export Plug-In . SVG Version: 6.00 Build 0)  -->
<svg version="1.1" id="Layer_1" xmlns="http://www.w3.org/2000/svg" xmlns:xlink="http://www.w3.org/1999/xlink" x="0px" y="0px"
	 viewBox="0 0 512 512" style="enable-background:new 0 0 512 512;" xml:space="preserve">
<style type="text/css">
	.st0{fill:none;stroke:#FFFFFF;stroke-miterlimit:10;}
</style>
<path class="st0" d="M256,0C114.6,0,0,114.6,0,256s114.6,256,256,256s256-114.6,256-256S397.4,0,256,0z M300.8,306.1
	c6.8,5.8,13.2,17.6,13.2,35.6c0,25.7-0.2,46.4-0.2,52.6c0,5,2.2,9.1,13.4,9.1l-123.3,0.3c10.5,0,13.4-4.1,13.4-9.2
	c0-4.5-0.1-16.7-0.2-32.7c-54.4,11.6-65.9-25.8-65.9-25.8c-8.9-22.2-21.8-28.2-21.8-28.2c-17.7-11.9,1.4-11.7,1.4-11.7
	c19.7,1.4,30,19.8,30,19.8c17.5,29.4,45.8,20.9,57,16c1.8-12.5,6.8-20.9,12.4-25.7c-43.4-4.8-89.2-21.4-89.2-95
	c0-21,7.6-38.2,20.1-51.6c-2.2-4.9-8.9-24.4,1.7-50.9c0,0,16.4-5.1,53.9,19.8c15.7-4.3,32.3-6.4,49-6.5c16.6,0.1,33.3,2.3,49,6.5
	c37.2-24.9,53.5-19.8,53.5-19.8c10.6,26.5,3.9,46,1.9,50.9c12.5,13.4,20.1,30.6,20.1,51.6C390.1,285.1,344.4,301.3,300.8,306.1z"/>
</svg>
