<?xml version="1.0" encoding="utf-8"?>
<!-- Generator: Adobe Illustrator 26.0.2, SVG Export Plug-In . SVG Version: 6.00 Build 0)  -->
<svg version="1.1" xmlns="http://www.w3.org/2000/svg" xmlns:xlink="http://www.w3.org/1999/xlink" x="0px" y="0px"
	 viewBox="0 0 512 512" style="enable-background:new 0 0 512 512;" xml:space="preserve">
<g id="Layer_1">
</g>
<g id="Layer_2">
	<g fill="#fff">
		<path class="st0" d="M256,203.4c-29.1,0-52.6,23.6-52.6,52.6c0,29.1,23.6,52.6,52.6,52.6s52.6-23.6,52.6-52.6
			C308.6,226.9,285.1,203.4,256,203.4z"/>
		<path class="st0" d="M334.9,124.4H177.1c-29,0-52.6,23.6-52.6,52.6v157.9c0,29,23.6,52.6,52.6,52.6h157.9
			c29,0,52.6-23.6,52.6-52.6h0V177.1C387.6,148,364,124.4,334.9,124.4z M256,334.9c-43.6,0-78.9-35.4-78.9-78.9
			c0-43.6,35.3-78.9,78.9-78.9c43.6,0,78.9,35.3,78.9,78.9C334.9,299.6,299.6,334.9,256,334.9z M341.5,190.2
			c-10.9,0-19.7-8.8-19.7-19.7s8.8-19.7,19.7-19.7s19.7,8.8,19.7,19.7S352.4,190.2,341.5,190.2z"/>
		<path class="st0" d="M256,0C114.6,0,0,114.6,0,256s114.6,256,256,256s256-114.6,256-256S397.4,0,256,0z M413.9,334.9
			c0,43.4-35.5,78.9-78.9,78.9H177.1c-43.4,0-78.9-35.5-78.9-78.9V177.1c0-43.4,35.5-78.9,78.9-78.9h157.9
			c43.4,0,78.9,35.5,78.9,78.9V334.9z"/>
	</g>
</g>
</svg>
