<?xml version="1.0" encoding="utf-8"?>
<!-- Generator: Adobe Illustrator 25.0.0, SVG Export Plug-In . SVG Version: 6.00 Build 0)  -->
<svg version="1.1" id="Layer_1" xmlns="http://www.w3.org/2000/svg" xmlns:xlink="http://www.w3.org/1999/xlink" x="0px" y="0px"
	 viewBox="0 0 512 512" style="enable-background:new 0 0 512 512;" xml:space="preserve">
<style type="text/css">
	.st0{fill:#FFFFFF;}
</style>
<path class="st0" d="M256,0C114.6,0,0,114.6,0,256s114.6,256,256,256s256-114.6,256-256S397.4,0,256,0z M202.6,380.7
	c0,3-0.7,5.5-2.2,7.6c-1.5,2.1-3.7,3.1-6.5,3.1c-2,0-4-0.5-5.9-1.4l-83-41.6c-2.5-1.2-4.6-3.2-6.3-6S96,336.8,96,334V130.5
	c0-2.4,0.6-4.4,1.8-6.1c1.2-1.7,2.9-2.5,5.2-2.5c1.7,0,4.3,0.9,7.9,2.7l91.3,45.7c0.2,0.3,0.4,0.6,0.4,0.9V380.7z M214,296.4V189.2
	l95.4,154.6L214,296.4z M246.4,219.8l57.9-94.1c2-3.3,5.1-5,9.3-5c1.7,0,3.2,0.4,4.6,1.1l96.6,48.2c0.4,0.2,0.7,0.5,0.7,1
	c0,0.4-15.3,25.3-45.8,74.9c-30.5,49.6-48.5,78.6-53.7,87.1L246.4,219.8z M416,380.6c0,3-0.8,5.4-2.5,7.2c-1.7,1.8-3.9,2.8-6.8,2.8
	c-2.9,0-5.7-0.8-8.4-2.3L319.6,349L416,192.4V380.6z"/>
</svg>
