<?xml version="1.0" encoding="utf-8"?>
<!-- Generator: Adobe Illustrator 26.0.2, SVG Export Plug-In . SVG Version: 6.00 Build 0)  -->
<svg version="1.1" id="Layer_1" xmlns="http://www.w3.org/2000/svg" xmlns:xlink="http://www.w3.org/1999/xlink" x="0px" y="0px"
	 viewBox="0 0 512 512" style="enable-background:new 0 0 512 512;" xml:space="preserve">
<style type="text/css">
	.st0{fill:none;stroke:#FFFFFF;stroke-miterlimit:10;}
</style>
<g>
	<path class="st0" d="M256,0C114.6,0,0,114.6,0,256s114.6,256,256,256s256-114.6,256-256S397.4,0,256,0z M395.6,134.7l-50.9,244.9
		c-1.2,5.8-8,8.4-12.8,4.9L262.4,334c-4.2-3.1-10-2.9-14,0.4l-38.5,31.4c-4.4,3.6-11.2,1.6-12.9-3.9l-26.8-86l-69.1-25.8
		c-7-2.6-7.1-12.5-0.1-15.2l283.7-109.5C390.7,123.1,396.9,128.4,395.6,134.7z"/>
	<path class="st0" d="M327.8,179l-135.1,83.2c-5.2,3.2-7.6,9.5-6,15.3l14.6,51.3c1,3.6,6.3,3.3,6.8-0.5l3.8-28.1
		c0.8-5.3,3.3-10.2,7.2-13.8l111.5-103.7C332.7,180.8,330.2,177.5,327.8,179z"/>
</g>
</svg>
