<?xml version="1.0" encoding="utf-8"?>
<!-- Generator: Adobe Illustrator 26.0.2, SVG Export Plug-In . SVG Version: 6.00 Build 0)  -->
<svg version="1.1" id="Layer_1" xmlns="http://www.w3.org/2000/svg" xmlns:xlink="http://www.w3.org/1999/xlink" x="0px" y="0px"
	 viewBox="0 0 512 512" style="enable-background:new 0 0 512 512;" xml:space="preserve">
<style type="text/css">
	.st0{fill:none;stroke:#FFFFFF;stroke-miterlimit:10;}
</style>
<g id="Layer_2_00000129175238095065989690000006248722382502647708_">
	<g id="Color">
		<path id="_77.TikTok" class="st0" d="M256,0C114.6,0,0,114.6,0,256s114.6,256,256,256s256-114.6,256-256S397.4,0,256,0z
			 M371.4,227.5c-22.8,2.5-42.4-6.5-62-18c0,1.9,0.6,60.4-0.4,88.3c-1,28.7-11.2,53.9-33.7,72.7c-47.6,40-115.2,18.4-131.4-42.7
			c-8.8-33.3-1.1-63.3,25-87.1c14.7-13.5,32.9-19.5,52.3-22c4.2-0.5,8.4-0.8,12.9-1.2v45.3c-5.7,1.4-11.5,2.7-17.2,4.3
			c-3.9,1.1-7.8,2.6-11.5,4.3c-18.7,8.4-27,30.3-18.6,49c1.3,3,3.1,5.8,5.1,8.3c8.8,12.2,23.7,18.5,38.6,16.3
			c14.7-1.8,23.9-11,29.4-24.4c3.8-10.5,5.4-21.7,4.8-32.9c-0.2-55-0.2-109.9-0.3-164.9c0-0.6,0.1-1.1,0.2-1.7h44
			c4.9,36.8,23.6,60.1,62.7,63.4L371.4,227.5z"/>
	</g>
</g>
</svg>
