<?xml version="1.0" encoding="utf-8"?>
<!-- Generator: Adobe Illustrator 26.0.2, SVG Export Plug-In . SVG Version: 6.00 Build 0)  -->
<svg version="1.1" id="Layer_1" xmlns="http://www.w3.org/2000/svg" xmlns:xlink="http://www.w3.org/1999/xlink" x="0px" y="0px"
	 viewBox="0 0 512 512" style="enable-background:new 0 0 512 512;" xml:space="preserve">
<style type="text/css">
</style>
<path fill="#fff" class="st0" d="M256,0C114.6,0,0,114.6,0,256s114.6,256,256,256s256-114.6,256-256S397.4,0,256,0z M382.6,191.5
	c0.4,2.8,0.4,5.6,0.4,8.4c0,86.3-65.5,186.1-186.1,186.3c-37.1,0-71.4-10.8-100.6-29.6c42,4.4,74.7-9.6,97.1-27.2
	c-28.4-0.4-52.7-19.5-61.1-45.5c8.8,2,23.2,0.8,29.6-1.2c-29.5-6-52.3-32.7-52.3-65.1c8.8,4.8,19.2,8,29.6,8
	c-17.2-11.6-43.2-46-20-87.5c32.4,39.5,80.3,65.9,134.6,68.3c-1.2-4.8-1.6-9.6-1.6-14.8c0-35.9,29.2-65.5,65.5-65.5
	c18.7,0,35.9,8,47.9,20.8c14.7-3.2,28.7-8.4,41.5-16c-4.8,15.5-15.2,28.3-28.8,36.3c13.1-1.6,25.5-5.2,37.5-10.4
	C407.4,169.9,396.2,181.5,382.6,191.5z"/>
</svg>
